<?xml version="1.0" encoding="utf-8"?>
<!-- Generator: Adobe Illustrator 19.1.0, SVG Export Plug-In . SVG Version: 6.00 Build 0)  -->
<svg version="1.1" id="Layer_1" xmlns="http://www.w3.org/2000/svg" xmlns:xlink="http://www.w3.org/1999/xlink" x="0px" y="0px"
	 viewBox="0 0 360 80" style="enable-background:new 0 0 360 80;" xml:space="preserve">
<style type="text/css">
	.st0{fill:#005FA0;}
	.st1{fill:#009EFF;}
	.st2{fill:#FFFDF5;}
</style>
<g>
	<path class="st0" d="M37.8,57.6c0,2.3-1.9,4.1-4.1,4.1c-1.6,0-3-0.9-3.7-2.3c-0.6-1.3-7.6-15.2-7.7-15.6H10.5v13.7
		c0,2.3-2,4.2-4.3,4.2c-2.3,0-4.3-1.9-4.3-4.2v-35c0-2.4,1.9-4.3,4.3-4.3h16c8.6,0,15.7,3.4,15.7,12.9c0,5-2.3,9.2-7,11.2
		C32,44.8,37.8,55.5,37.8,57.6z M10.5,26.2v10.3h12.9c3.2,0,5.9-1.7,5.9-5.1c0-3.4-2.6-5.2-5.9-5.2H10.5z"/>
	<path class="st0" d="M52.3,61.2c-2.3,0-4.3-1.9-4.3-4.3V22.6c0-2.4,1.9-4.3,4.3-4.3h23.4c2.2,0,4.1,1.8,4.1,4
		c0,2.3-1.9,4.1-4.1,4.1H56.6v9.2h10.6c2.2,0,4,1.8,4,4c0,2.3-1.8,4-4,4H56.6v9.6h20.1c2.2,0,4.1,1.9,4.1,4.1c0,2.3-1.9,4-4.1,4
		C76.7,61.2,52.2,61.2,52.3,61.2z"/>
	<path class="st0" d="M96.2,61.2c-2.3,0-4.3-1.9-4.3-4.3V22.6c0-2.4,1.9-4.3,4.3-4.3h23.4c2.2,0,4.1,1.8,4.1,4
		c0,2.3-1.9,4.1-4.1,4.1h-19.2v9.2h10.6c2.2,0,4,1.8,4,4c0,2.3-1.8,4-4,4h-10.6v9.6h20.1c2.2,0,4.1,1.9,4.1,4.1c0,2.3-1.9,4-4.1,4
		C120.6,61.2,96.1,61.2,96.2,61.2z"/>
	<path class="st0" d="M138.6,61.2c-2.3,0-4.3-1.9-4.3-4.3V22c0-2.4,1.9-4.3,4.3-4.3c2.4,0,4.3,1.9,4.3,4.3v31.2h19.4
		c2.2,0,4.1,1.8,4.1,4c0,2.3-1.9,4.1-4.1,4.1H138.6z"/>
	<path class="st1" d="M351.2,79.1H193.7c-3.9,0-7-3.1-7-7V7.8c0-3.9,3.1-7,7-7h157.5c3.9,0,7,3.1,7,7v64.3
		C358.2,76,355,79.1,351.2,79.1z"/>
	<polyline class="st0" points="339.5,0.9 358.2,0.9 358.2,19.5 	"/>
	<path class="st2" d="M234.9,57.4V43.1h-19.4v14.3c0,2.3-1.9,4.3-4.3,4.3c-2.3,0-4.3-1.9-4.3-4.3V22c0-2.4,1.9-4.3,4.3-4.3
		c2.4,0,4.3,1.9,4.3,4.3v13h19.4V22c0-2.4,1.9-4.3,4.3-4.3c2.4,0,4.3,1.9,4.3,4.3v35.4c0,2.3-1.9,4.3-4.3,4.3
		C236.8,61.7,234.9,59.8,234.9,57.4z"/>
	<path class="st2" d="M253.7,43.7V22c0-2.4,1.9-4.3,4.3-4.3c2.4,0,4.3,1.9,4.3,4.3v22.8c0,5.7,3.6,9.5,10.1,9.5
		c6.4,0,10.1-3.9,10.1-9.5V22c0-2.4,1.9-4.3,4.3-4.3c2.4,0,4.3,1.9,4.3,4.3v21.7c0,11.2-7.5,18.4-18.7,18.4
		C261.2,62.1,253.7,54.8,253.7,43.7z"/>
	<path class="st2" d="M305.9,61.2c-2.4,0-4.3-1.9-4.3-4.3V22.6c0-2.4,1.9-4.3,4.3-4.3h14.9c8.8,0,13.9,4.3,13.9,10.4
		c0,4.3-2.3,7.9-5.7,9.6c5.2,1.6,7.9,5.9,7.9,10.8c0,6.8-5.7,12.2-15.7,12.2H305.9z M310.2,26.2v8.4c4.5,0,11.3,0,11.3,0
		c3.1,0,4.6-2.1,4.6-4.3c0-2.3-1.4-4.1-4.6-4.1H310.2z M310.2,42.5v10.8h12.2c4.2,0,5.9-2.9,5.9-5.5c0-2.6-1.7-5.3-5.9-5.3
		C322.4,42.5,317.9,42.5,310.2,42.5z"/>
</g>
<g>
</g>
<g>
</g>
<g>
</g>
<g>
</g>
<g>
</g>
<g>
</g>
<g>
</g>
<g>
</g>
<g>
</g>
<g>
</g>
<g>
</g>
<g>
</g>
<g>
</g>
<g>
</g>
<g>
</g>
</svg>
